<?xml version="1.0" encoding="UTF-8" standalone="no"?>
<!DOCTYPE svg PUBLIC "-//W3C//DTD SVG 1.1//EN" "http://www.w3.org/Graphics/SVG/1.1/DTD/svg11.dtd">
<!-- 由 Microsoft Visio, SVG Export 生成 Family_tree.svg Page-1 -->
<svg xmlns="http://www.w3.org/2000/svg" xmlns:xlink="http://www.w3.org/1999/xlink" xmlns:ev="http://www.w3.org/2001/xml-events"
		xmlns:v="http://schemas.microsoft.com/visio/2003/SVGExtensions/" width="11.6929in" height="16.5354in"
		viewBox="0 0 841.89 1190.55" xml:space="preserve" color-interpolation-filters="sRGB" class="st5">
	<v:documentProperties v:langID="2052" v:metric="true" v:viewMarkup="false">
		<v:userDefs>
			<v:ud v:nameU="msvSubprocessMaster" v:prompt="" v:val="VT4(Rectangle)"/>
			<v:ud v:nameU="msvNoAutoConnect" v:val="VT0(1):26"/>
		</v:userDefs>
	</v:documentProperties>

	<style type="text/css">
	<![CDATA[
		.st1 {fill:#000000;stroke:#c7c8c8;stroke-width:0.25}
		.st2 {fill:none;stroke:none;stroke-width:0.25}
		.st3 {fill:#4672c4;font-family:Calibri;font-size:1.00001em}
		.st4 {stroke:#4672c4;stroke-linecap:round;stroke-linejoin:round;stroke-width:1}
		.st5 {fill:none;fill-rule:evenodd;font-size:12px;overflow:visible;stroke-linecap:square;stroke-miterlimit:3}
	]]>
	</style>

	<g v:mID="0" v:index="1" v:groupContext="foregroundPage">
		<v:userDefs>
			<v:ud v:nameU="msvThemeOrder" v:val="VT0(0):26"/>
		</v:userDefs>
		<title>页-1</title>
		<v:pageProperties v:drawingScale="0.0393701" v:pageScale="0.0393701" v:drawingUnits="24" v:shadowOffsetX="8.50394"
				v:shadowOffsetY="-8.50394"/>
		<v:layer v:name="连接线" v:index="0"/>
		<g id="shape1-1" v:mID="1" v:groupContext="shape" transform="translate(568,-1026.32)">
			<title>圆形</title>
			<v:userDefs>
				<v:ud v:nameU="visVersion" v:val="VT0(15):26"/>
			</v:userDefs>
			<path d="M0 1180.96 A9.58777 9.58777 0 0 1 19.18 1180.96 A9.58777 9.58777 0 1 1 0 1180.96 Z" class="st1"/>
		</g>
		<g id="shape2-3" v:mID="2" v:groupContext="shape" transform="translate(590.677,-1025.91)">
			<title>工作表.2</title>
			<desc>Equivalence of states (3)</desc>
			<v:textBlock v:margins="rect(4,4,4,4)" v:tabSpace="42.5197"/>
			<v:textRect cx="87.3386" cy="1180.55" width="174.68" height="20"/>
			<rect x="0" y="1170.55" width="174.677" height="20" class="st2"/>
			<text x="27.79" y="1184.15" class="st3" v:langID="1033"><v:paragraph v:horizAlign="1"/><v:tabList/>Equivalence of states (3)</text>		</g>
		<g id="shape5-6" v:mID="5" v:groupContext="shape" transform="translate(632.793,-927.78)">
			<title>圆形.5</title>
			<v:userDefs>
				<v:ud v:nameU="visVersion" v:val="VT0(15):26"/>
			</v:userDefs>
			<path d="M0 1180.96 A9.58777 9.58777 0 0 1 19.18 1180.96 A9.58777 9.58777 0 1 1 0 1180.96 Z" class="st1"/>
		</g>
		<g id="shape6-8" v:mID="6" v:groupContext="shape" transform="translate(657.638,-926.955)">
			<title>工作表.6</title>
			<desc>(4.6)</desc>
			<v:textBlock v:margins="rect(4,4,4,4)" v:tabSpace="42.5197"/>
			<v:textRect cx="20.7638" cy="1180.55" width="41.53" height="20"/>
			<rect x="0" y="1170.55" width="41.5276" height="20" class="st2"/>
			<text x="9.53" y="1184.15" class="st3" v:langID="1033"><v:paragraph v:horizAlign="1"/><v:tabList/>(4.6)</text>		</g>
		<g id="shape9-11" v:mID="9" v:groupContext="shape" transform="translate(1574.95,-496.131) rotate(56.8412)">
			<title>工作表.9</title>
			<path d="M0 1190.55 L117.22 1190.55" class="st4"/>
		</g>
		<g id="shape10-14" v:mID="10" v:groupContext="shape" transform="translate(632.793,-802.305)">
			<title>圆形.10</title>
			<v:userDefs>
				<v:ud v:nameU="visVersion" v:val="VT0(15):26"/>
			</v:userDefs>
			<path d="M0 1180.96 A9.58777 9.58777 0 0 1 19.18 1180.96 A9.58777 9.58777 0 1 1 0 1180.96 Z" class="st1"/>
		</g>
		<g id="shape11-16" v:mID="11" v:groupContext="shape" transform="translate(653.882,-802.305)">
			<title>工作表.11</title>
			<desc>(4.9)</desc>
			<v:textBlock v:margins="rect(4,4,4,4)" v:tabSpace="42.5197"/>
			<v:textRect cx="20.7638" cy="1180.55" width="41.53" height="20"/>
			<rect x="0" y="1170.55" width="41.5276" height="20" class="st2"/>
			<text x="9.53" y="1184.15" class="st3" v:langID="1033"><v:paragraph v:horizAlign="1"/><v:tabList/>(4.9)</text>		</g>
		<g id="shape12-19" v:mID="12" v:groupContext="shape" transform="translate(1832.93,253.184) rotate(90)">
			<title>工作表.12</title>
			<path d="M0 1190.55 L125.47 1190.55" class="st4"/>
		</g>
		<g id="shape13-22" v:mID="13" v:groupContext="shape" transform="translate(651.969,-856.913)">
			<title>工作表.13</title>
			<desc>Imperative program</desc>
			<v:textBlock v:margins="rect(4,4,4,4)" v:tabSpace="42.5197"/>
			<v:textRect cx="56.6929" cy="1176.38" width="113.39" height="28.3465"/>
			<rect x="0" y="1162.2" width="113.386" height="28.3465" class="st2"/>
			<text x="7.85" y="1179.98" class="st3" v:langID="1033"><v:paragraph v:horizAlign="1"/><v:tabList/>Imperative program</text>		</g>
		<g id="shape15-25" v:mID="15" v:groupContext="shape" transform="translate(632.793,-694.255)">
			<title>圆形.15</title>
			<v:userDefs>
				<v:ud v:nameU="visVersion" v:val="VT0(15):26"/>
			</v:userDefs>
			<path d="M0 1180.96 A9.58777 9.58777 0 0 1 19.18 1180.96 A9.58777 9.58777 0 1 1 0 1180.96 Z" class="st1"/>
		</g>
		<g id="shape16-27" v:mID="16" v:groupContext="shape" transform="translate(666.142,-693.843)">
			<title>工作表.16</title>
			<desc>(Pg. 15)</desc>
			<v:textBlock v:margins="rect(4,4,4,4)" v:tabSpace="42.5197"/>
			<v:textRect cx="26.9291" cy="1180.55" width="53.86" height="20"/>
			<rect x="0" y="1170.55" width="53.8583" height="20" class="st2"/>
			<text x="8.41" y="1184.15" class="st3" v:langID="1033"><v:paragraph v:horizAlign="1"/><v:tabList/>(Pg. 15)</text>		</g>
		<g id="shape18-30" v:mID="18" v:groupContext="shape" transform="translate(1832.93,378.659) rotate(90)">
			<title>工作表.18</title>
			<path d="M0 1190.55 L108.05 1190.55" class="st4"/>
		</g>
		<g id="shape19-33" v:mID="19" v:groupContext="shape" transform="translate(660.472,-746.362)">
			<title>工作表.19</title>
			<desc>memozation</desc>
			<v:textBlock v:margins="rect(4,4,4,4)" v:tabSpace="42.5197"/>
			<v:textRect cx="38.2677" cy="1180.63" width="76.54" height="19.8425"/>
			<rect x="0" y="1170.71" width="76.5354" height="19.8425" class="st2"/>
			<text x="7.58" y="1184.23" class="st3" v:langID="1033"><v:paragraph v:horizAlign="1"/><v:tabList/>memozation</text>		</g>
		<g id="shape20-36" v:mID="20" v:groupContext="shape" transform="translate(396.85,-928.604)">
			<title>圆形.20</title>
			<v:userDefs>
				<v:ud v:nameU="visVersion" v:val="VT0(15):26"/>
			</v:userDefs>
			<path d="M0 1180.96 A9.58777 9.58777 0 0 1 19.18 1180.96 A9.58777 9.58777 0 1 1 0 1180.96 Z" class="st1"/>
		</g>
		<g id="shape21-38" v:mID="21" v:groupContext="shape" transform="translate(421.695,-927.78)">
			<title>工作表.21</title>
			<desc>(4.1 4.5 4.7)</desc>
			<v:textBlock v:margins="rect(4,4,4,4)" v:tabSpace="42.5197"/>
			<v:textRect cx="35.7666" cy="1180.55" width="71.54" height="20"/>
			<rect x="0" y="1170.55" width="71.5331" height="20" class="st2"/>
			<text x="6.63" y="1184.15" class="st3" v:langID="1033"><v:paragraph v:horizAlign="1"/><v:tabList/>(4.1 4.5 4.7)</text>		</g>
		<g id="shape22-41" v:mID="22" v:groupContext="shape" transform="translate(1163.24,1192.39) rotate(150.582)">
			<title>工作表.22</title>
			<path d="M0 1190.55 L197.49 1190.55" class="st4"/>
		</g>
		<g id="shape23-44" v:mID="23" v:groupContext="shape" transform="translate(473.436,-844.195)">
			<title>圆形.23</title>
			<v:userDefs>
				<v:ud v:nameU="visVersion" v:val="VT0(15):26"/>
			</v:userDefs>
			<path d="M0 1180.96 A9.58777 9.58777 0 0 1 19.18 1180.96 A9.58777 9.58777 0 1 1 0 1180.96 Z" class="st1"/>
		</g>
		<g id="shape24-46" v:mID="24" v:groupContext="shape" transform="translate(498.281,-843.37)">
			<title>工作表.24</title>
			<desc>4.10</desc>
			<v:textBlock v:margins="rect(4,4,4,4)" v:tabSpace="42.5197"/>
			<v:textRect cx="35.7666" cy="1180.55" width="71.54" height="20"/>
			<rect x="0" y="1170.55" width="71.5331" height="20" class="st2"/>
			<text x="25.13" y="1184.15" class="st3" v:langID="1033"><v:paragraph v:horizAlign="1"/><v:tabList/>4.10</text>		</g>
		<g id="shape25-49" v:mID="25" v:groupContext="shape" transform="translate(1288.15,-547.635) rotate(47.782)">
			<title>工作表.25</title>
			<path d="M0 1190.55 L113.98 1190.55" class="st4"/>
		</g>
		<g id="shape26-52" v:mID="26" v:groupContext="shape" transform="translate(255.118,-846.242)">
			<title>圆形.26</title>
			<v:userDefs>
				<v:ud v:nameU="visVersion" v:val="VT0(15):26"/>
			</v:userDefs>
			<path d="M0 1180.96 A9.58777 9.58777 0 0 1 19.18 1180.96 A9.58777 9.58777 0 1 1 0 1180.96 Z" class="st1"/>
		</g>
		<g id="shape27-54" v:mID="27" v:groupContext="shape" transform="translate(279.963,-845.417)">
			<title>工作表.27</title>
			<desc>(4.1 4.5 4.7)</desc>
			<v:textBlock v:margins="rect(4,4,4,4)" v:tabSpace="42.5197"/>
			<v:textRect cx="35.7666" cy="1180.55" width="71.54" height="20"/>
			<rect x="0" y="1170.55" width="71.5331" height="20" class="st2"/>
			<text x="6.63" y="1184.15" class="st3" v:langID="1033"><v:paragraph v:horizAlign="1"/><v:tabList/>(4.1 4.5 4.7)</text>		</g>
		<g id="shape28-57" v:mID="28" v:groupContext="shape" transform="translate(1004.61,1281.73) rotate(149.839)">
			<title>工作表.28</title>
			<path d="M0 1190.55 L163.93 1190.55" class="st4"/>
		</g>
		<g id="shape29-60" v:mID="29" v:groupContext="shape" transform="translate(391.181,-749.864)">
			<title>圆形.29</title>
			<v:userDefs>
				<v:ud v:nameU="visVersion" v:val="VT0(15):26"/>
			</v:userDefs>
			<path d="M0 1180.96 A9.58777 9.58777 0 0 1 19.18 1180.96 A9.58777 9.58777 0 1 1 0 1180.96 Z" class="st1"/>
		</g>
		<g id="shape30-62" v:mID="30" v:groupContext="shape" transform="translate(416.026,-749.039)">
			<title>工作表.30</title>
			<desc>Hopcroft-Ullman(4.7)</desc>
			<v:textBlock v:margins="rect(4,4,4,4)" v:tabSpace="42.5197"/>
			<v:textRect cx="64.113" cy="1180.55" width="128.23" height="20"/>
			<rect x="0" y="1170.55" width="128.226" height="20" class="st2"/>
			<text x="11.93" y="1184.15" class="st3" v:langID="1033"><v:paragraph v:horizAlign="1"/><v:tabList/>Hopcroft-Ullman(4.7)</text>		</g>
		<g id="shape31-65" v:mID="31" v:groupContext="shape" transform="translate(129.643,-750.614)">
			<title>圆形.31</title>
			<v:userDefs>
				<v:ud v:nameU="visVersion" v:val="VT0(15):26"/>
			</v:userDefs>
			<path d="M0 1180.96 A9.58777 9.58777 0 0 1 19.18 1180.96 A9.58777 9.58777 0 1 1 0 1180.96 Z" class="st1"/>
		</g>
		<g id="shape32-67" v:mID="32" v:groupContext="shape" transform="translate(127.559,-747.701)">
			<title>工作表.32</title>
			<desc>4.2</desc>
			<v:textBlock v:margins="rect(4,4,4,4)" v:tabSpace="42.5197"/>
			<v:textRect cx="35.7666" cy="1180.55" width="71.54" height="20"/>
			<rect x="0" y="1170.55" width="71.5331" height="20" class="st2"/>
			<text x="28.17" y="1184.15" class="st3" v:langID="1033"><v:paragraph v:horizAlign="1"/><v:tabList/>4.2</text>		</g>
		<g id="shape33-70" v:mID="33" v:groupContext="shape" transform="translate(255.118,-749.864)">
			<title>圆形.33</title>
			<v:userDefs>
				<v:ud v:nameU="visVersion" v:val="VT0(15):26"/>
			</v:userDefs>
			<path d="M0 1180.96 A9.58777 9.58777 0 0 1 19.18 1180.96 A9.58777 9.58777 0 1 1 0 1180.96 Z" class="st1"/>
		</g>
		<g id="shape36-72" v:mID="36" v:groupContext="shape" transform="translate(-287.39,1402.62) rotate(-144.689)">
			<title>工作表.36</title>
			<path d="M0 1190.55 L166.74 1190.55" class="st4"/>
		</g>
		<g id="shape37-75" v:mID="37" v:groupContext="shape" transform="translate(-925.845,431.1) rotate(-90)">
			<title>工作表.37</title>
			<path d="M0 1190.55 L96.38 1190.55" class="st4"/>
		</g>
		<g id="shape38-78" v:mID="38" v:groupContext="shape" transform="translate(-582.427,-516.552) rotate(-37.312)">
			<title>工作表.38</title>
			<path d="M0 1190.55 L157.76 1190.55" class="st4"/>
		</g>
		<g id="shape39-81" v:mID="39" v:groupContext="shape" transform="translate(265.039,-783.78)">
			<title>工作表.39</title>
			<desc>unordered</desc>
			<v:textBlock v:margins="rect(4,4,4,4)" v:tabSpace="42.5197"/>
			<v:textRect cx="30.4724" cy="1178.79" width="60.95" height="23.5276"/>
			<rect x="0" y="1167.02" width="60.9449" height="23.5276" class="st2"/>
			<text x="4.54" y="1182.39" class="st3" v:langID="1033"><v:paragraph v:horizAlign="1"/><v:tabList/>unordered</text>		</g>
		<g id="shape41-84" v:mID="41" v:groupContext="shape" transform="translate(172.913,-664.232)">
			<title>圆形.41</title>
			<v:userDefs>
				<v:ud v:nameU="visVersion" v:val="VT0(15):26"/>
			</v:userDefs>
			<path d="M0 1180.96 A9.58777 9.58777 0 0 1 19.18 1180.96 A9.58777 9.58777 0 1 1 0 1180.96 Z" class="st1"/>
		</g>
		<g id="shape42-86" v:mID="42" v:groupContext="shape" transform="translate(176.498,-663.407)">
			<title>工作表.42</title>
			<desc>4.3</desc>
			<v:textBlock v:margins="rect(4,4,4,4)" v:tabSpace="42.5197"/>
			<v:textRect cx="35.7666" cy="1180.55" width="71.54" height="20"/>
			<rect x="0" y="1170.55" width="71.5331" height="20" class="st2"/>
			<text x="28.17" y="1184.15" class="st3" v:langID="1033"><v:paragraph v:horizAlign="1"/><v:tabList/>4.3</text>		</g>
		<g id="shape43-89" v:mID="43" v:groupContext="shape" transform="translate(172.913,-578.074)">
			<title>圆形.43</title>
			<v:userDefs>
				<v:ud v:nameU="visVersion" v:val="VT0(15):26"/>
			</v:userDefs>
			<path d="M0 1180.96 A9.58777 9.58777 0 0 1 19.18 1180.96 A9.58777 9.58777 0 1 1 0 1180.96 Z" class="st1"/>
		</g>
		<g id="shape44-91" v:mID="44" v:groupContext="shape" transform="translate(190.672,-577.249)">
			<title>工作表.44</title>
			<desc>ASU(4.4)</desc>
			<v:textBlock v:margins="rect(4,4,4,4)" v:tabSpace="42.5197"/>
			<v:textRect cx="35.7666" cy="1180.55" width="71.54" height="20"/>
			<rect x="0" y="1170.55" width="71.5331" height="20" class="st2"/>
			<text x="14.45" y="1184.15" class="st3" v:langID="1033"><v:paragraph v:horizAlign="1"/><v:tabList/>ASU(4.4)</text>		</g>
		<g id="shape45-94" v:mID="45" v:groupContext="shape" transform="translate(-676.357,-307.753) rotate(-46.1698)">
			<title>工作表.45</title>
			<path d="M0 1190.55 L118.7 1190.55" class="st4"/>
		</g>
		<g id="shape46-97" v:mID="46" v:groupContext="shape" transform="translate(-1008.05,602.89) rotate(-90)">
			<title>工作表.46</title>
			<path d="M0 1190.55 L86.16 1190.55" class="st4"/>
		</g>
		<g id="shape47-100" v:mID="47" v:groupContext="shape" transform="translate(335.906,-663.486)">
			<title>圆形.47</title>
			<v:userDefs>
				<v:ud v:nameU="visVersion" v:val="VT0(15):26"/>
			</v:userDefs>
			<path d="M0 1180.96 A9.58777 9.58777 0 0 1 19.18 1180.96 A9.58777 9.58777 0 1 1 0 1180.96 Z" class="st1"/>
		</g>
		<g id="shape48-102" v:mID="48" v:groupContext="shape" transform="translate(339.491,-662.661)">
			<title>工作表.48</title>
			<desc>4.5</desc>
			<v:textBlock v:margins="rect(4,4,4,4)" v:tabSpace="42.5197"/>
			<v:textRect cx="35.7666" cy="1180.55" width="71.54" height="20"/>
			<rect x="0" y="1170.55" width="71.5331" height="20" class="st2"/>
			<text x="28.17" y="1184.15" class="st3" v:langID="1033"><v:paragraph v:horizAlign="1"/><v:tabList/>4.5</text>		</g>
		<g id="shape49-105" v:mID="49" v:groupContext="shape" transform="translate(335.906,-578.1)">
			<title>圆形.49</title>
			<v:userDefs>
				<v:ud v:nameU="visVersion" v:val="VT0(15):26"/>
			</v:userDefs>
			<path d="M0 1180.96 A9.58777 9.58777 0 0 1 19.18 1180.96 A9.58777 9.58777 0 1 1 0 1180.96 Z" class="st1"/>
		</g>
		<g id="shape50-107" v:mID="50" v:groupContext="shape" transform="translate(339.491,-577.276)">
			<title>工作表.50</title>
			<desc>(4.6)</desc>
			<v:textBlock v:margins="rect(4,4,4,4)" v:tabSpace="42.5197"/>
			<v:textRect cx="35.7666" cy="1180.55" width="71.54" height="20"/>
			<rect x="0" y="1170.55" width="71.5331" height="20" class="st2"/>
			<text x="24.53" y="1184.15" class="st3" v:langID="1033"><v:paragraph v:horizAlign="1"/><v:tabList/>(4.6)</text>		</g>
		<g id="shape51-110" v:mID="51" v:groupContext="shape" transform="translate(335.906,-490.494)">
			<title>圆形.51</title>
			<v:userDefs>
				<v:ud v:nameU="visVersion" v:val="VT0(15):26"/>
			</v:userDefs>
			<path d="M0 1180.96 A9.58777 9.58777 0 0 1 19.18 1180.96 A9.58777 9.58777 0 1 1 0 1180.96 Z" class="st1"/>
		</g>
		<g id="shape52-112" v:mID="52" v:groupContext="shape" transform="translate(354.331,-488.409)">
			<title>工作表.52</title>
			<desc>(pg. 13)</desc>
			<v:textBlock v:margins="rect(4,4,4,4)" v:tabSpace="42.5197"/>
			<v:textRect cx="35.7666" cy="1180.55" width="71.54" height="20"/>
			<rect x="0" y="1170.55" width="71.5331" height="20" class="st2"/>
			<text x="17.2" y="1184.15" class="st3" v:langID="1033"><v:paragraph v:horizAlign="1"/><v:tabList/>(pg. 13)</text>		</g>
		<g id="shape53-115" v:mID="53" v:groupContext="shape" transform="translate(335.906,-398.368)">
			<title>圆形.53</title>
			<v:userDefs>
				<v:ud v:nameU="visVersion" v:val="VT0(15):26"/>
			</v:userDefs>
			<path d="M0 1180.96 A9.58777 9.58777 0 0 1 19.18 1180.96 A9.58777 9.58777 0 1 1 0 1180.96 Z" class="st1"/>
		</g>
		<g id="shape54-117" v:mID="54" v:groupContext="shape" transform="translate(348.703,-398.04)">
			<title>工作表.54</title>
			<desc>Hopcroft(4.8)</desc>
			<v:textBlock v:margins="rect(4,4,4,4)" v:tabSpace="42.5197"/>
			<v:textRect cx="59.5067" cy="1180.55" width="119.02" height="20"/>
			<rect x="0" y="1170.55" width="119.013" height="20" class="st2"/>
			<text x="26.58" y="1184.15" class="st3" v:langID="1033"><v:paragraph v:horizAlign="1"/><v:tabList/>Hopcroft(4.8)</text>		</g>
		<g id="shape56-120" v:mID="56" v:groupContext="shape" transform="translate(-524.021,1330.72) rotate(-133.085)">
			<title>工作表.56</title>
			<path d="M0 1190.55 L118.27 1190.55" class="st4"/>
		</g>
		<g id="shape57-123" v:mID="57" v:groupContext="shape" transform="translate(-845.058,602.863) rotate(-90)">
			<title>工作表.57</title>
			<path d="M0 1190.55 L85.39 1190.55" class="st4"/>
		</g>
		<g id="shape58-126" v:mID="58" v:groupContext="shape" transform="translate(-845.058,690.47) rotate(-90)">
			<title>工作表.58</title>
			<path d="M0 1190.55 L87.61 1190.55" class="st4"/>
		</g>
		<g id="shape59-129" v:mID="59" v:groupContext="shape" transform="translate(364.774,-973.171)">
			<title>工作表.59</title>
			<desc>Equivalence relation</desc>
			<v:textBlock v:margins="rect(4,4,4,4)" v:tabSpace="42.5197"/>
			<v:textRect cx="63.7795" cy="1177.81" width="127.56" height="25.4743"/>
			<rect x="0" y="1165.08" width="127.559" height="25.4743" class="st2"/>
			<text x="14.16" y="1181.41" class="st3" v:langID="1033"><v:paragraph v:horizAlign="1"/><v:tabList/>Equivalence relation</text>		</g>
		<g id="shape60-132" v:mID="60" v:groupContext="shape" transform="translate(449.814,-882.546)">
			<title>工作表.60</title>
			<desc>Approx. from below</desc>
			<v:textBlock v:margins="rect(4,4,4,4)" v:tabSpace="42.5197"/>
			<v:textRect cx="63.7795" cy="1182.05" width="127.56" height="17.0079"/>
			<rect x="0" y="1173.54" width="127.559" height="17.0079" class="st2"/>
			<text x="15.07" y="1185.65" class="st3" v:langID="1033"><v:paragraph v:horizAlign="1"/><v:tabList/>Approx. from below</text>		</g>
		<g id="shape61-135" v:mID="61" v:groupContext="shape" transform="translate(208.346,-885.26)">
			<title>工作表.61</title>
			<desc>Approx. from above</desc>
			<v:textBlock v:margins="rect(4,4,4,4)" v:tabSpace="42.5197"/>
			<v:textRect cx="63.7795" cy="1182.05" width="127.56" height="17.0079"/>
			<rect x="0" y="1173.54" width="127.559" height="17.0079" class="st2"/>
			<text x="15.16" y="1185.65" class="st3" v:langID="1033"><v:paragraph v:horizAlign="1"/><v:tabList/>Approx. from above</text>		</g>
		<g id="shape62-138" v:mID="62" v:groupContext="shape" transform="translate(138.331,-807.307)">
			<title>工作表.62</title>
			<desc>layerwise</desc>
			<v:textBlock v:margins="rect(4,4,4,4)" v:tabSpace="42.5197"/>
			<v:textRect cx="33.5906" cy="1183.46" width="67.19" height="14.1732"/>
			<rect x="0" y="1176.38" width="67.1811" height="14.1732" class="st2"/>
			<text x="10.55" y="1187.06" class="st3" v:langID="1033"><v:paragraph v:horizAlign="1"/><v:tabList/>layerwise</text>		</g>
		<g id="shape63-141" v:mID="63" v:groupContext="shape" transform="translate(322.441,-786.047)">
			<title>工作表.63</title>
			<desc>state pair</desc>
			<v:textBlock v:margins="rect(4,4,4,4)" v:tabSpace="42.5197"/>
			<v:textRect cx="60.2362" cy="1181.2" width="120.48" height="18.7087"/>
			<rect x="0" y="1171.84" width="120.472" height="18.7087" class="st2"/>
			<text x="37.16" y="1184.8" class="st3" v:langID="1033"><v:paragraph v:horizAlign="1"/><v:tabList/>state pair</text>		</g>
		<g id="shape64-144" v:mID="64" v:groupContext="shape" transform="translate(164.976,-711.864)">
			<title>工作表.64</title>
			<desc>Native</desc>
			<v:textBlock v:margins="rect(4,4,4,4)" v:tabSpace="42.5197"/>
			<v:textRect cx="27.0231" cy="1181.81" width="54.05" height="17.4908"/>
			<rect x="0" y="1173.06" width="54.0461" height="17.4908" class="st2"/>
			<text x="11.19" y="1185.41" class="st3" v:langID="1033"><v:paragraph v:horizAlign="1"/><v:tabList/>Native</text>		</g>
		<g id="shape65-147" v:mID="65" v:groupContext="shape" transform="translate(311.811,-704.409)">
			<title>工作表.65</title>
			<desc>Improved</desc>
			<v:textBlock v:margins="rect(4,4,4,4)" v:tabSpace="42.5197"/>
			<v:textRect cx="35.4331" cy="1180.2" width="70.87" height="20.6929"/>
			<rect x="0" y="1169.86" width="70.8661" height="20.6929" class="st2"/>
			<text x="11.87" y="1183.8" class="st3" v:langID="1033"><v:paragraph v:horizAlign="1"/><v:tabList/>Improved</text>		</g>
		<g id="shape66-150" v:mID="66" v:groupContext="shape" transform="translate(164.693,-616.425)">
			<title>工作表.66</title>
			<desc>eq. classes</desc>
			<v:textBlock v:margins="rect(4,4,4,4)" v:tabSpace="42.5197"/>
			<v:textRect cx="54.9921" cy="1179.92" width="109.99" height="21.2598"/>
			<rect x="0" y="1169.29" width="109.984" height="21.2598" class="st2"/>
			<text x="29.17" y="1183.52" class="st3" v:langID="1033"><v:paragraph v:horizAlign="1"/><v:tabList/>eq. classes</text>		</g>
		<g id="shape67-153" v:mID="67" v:groupContext="shape" transform="translate(325.984,-616.451)">
			<title>工作表.67</title>
			<desc>eq. classes</desc>
			<v:textBlock v:margins="rect(4,4,4,4)" v:tabSpace="42.5197"/>
			<v:textRect cx="54.9921" cy="1179.92" width="109.99" height="21.2598"/>
			<rect x="0" y="1169.29" width="109.984" height="21.2598" class="st2"/>
			<text x="29.17" y="1183.52" class="st3" v:langID="1033"><v:paragraph v:horizAlign="1"/><v:tabList/>eq. classes</text>		</g>
		<g id="shape68-156" v:mID="68" v:groupContext="shape" transform="translate(-845.058,782.596) rotate(-90)">
			<title>工作表.68</title>
			<path d="M0 1190.55 L92.13 1190.55" class="st4"/>
		</g>
		<g id="shape69-159" v:mID="69" v:groupContext="shape" transform="translate(311.811,-527.585)">
			<title>工作表.69</title>
			<desc>lists</desc>
			<v:textBlock v:margins="rect(4,4,4,4)" v:tabSpace="42.5197"/>
			<v:textRect cx="54.9921" cy="1179.92" width="109.99" height="21.2598"/>
			<rect x="0" y="1169.29" width="109.984" height="21.2598" class="st2"/>
			<text x="45.54" y="1183.52" class="st3" v:langID="1033"><v:paragraph v:horizAlign="1"/><v:tabList/>lists</text>		</g>
		<g id="shape70-162" v:mID="70" v:groupContext="shape" transform="translate(340.724,-431.717)">
			<title>工作表.70</title>
			<desc>optimized list update</desc>
			<v:textBlock v:margins="rect(4,4,4,4)" v:tabSpace="42.5197"/>
			<v:textRect cx="70.5827" cy="1179.92" width="141.17" height="21.2598"/>
			<rect x="0" y="1169.29" width="141.165" height="21.2598" class="st2"/>
			<text x="19.05" y="1183.52" class="st3" v:langID="1033"><v:paragraph v:horizAlign="1"/><v:tabList/>optimized list update</text>		</g>
		<g id="shape72-165" v:mID="72" v:groupContext="shape" transform="translate(141.732,-1026.32)">
			<title>圆形.72</title>
			<v:userDefs>
				<v:ud v:nameU="visVersion" v:val="VT0(15):26"/>
			</v:userDefs>
			<path d="M0 1180.96 A9.58777 9.58777 0 0 1 19.18 1180.96 A9.58777 9.58777 0 1 1 0 1180.96 Z" class="st1"/>
		</g>
		<g id="shape73-167" v:mID="73" v:groupContext="shape" transform="translate(141.732,-1026.32)">
			<title>工作表.73</title>
			<desc>Brzozowski (2)</desc>
			<v:textBlock v:margins="rect(4,4,4,4)" v:tabSpace="42.5197"/>
			<v:textRect cx="63.7795" cy="1182.05" width="127.56" height="17.0079"/>
			<rect x="0" y="1173.54" width="127.559" height="17.0079" class="st2"/>
			<text x="28.58" y="1185.65" class="st3" v:langID="1033"><v:paragraph v:horizAlign="1"/><v:tabList/>Brzozowski (2)</text>		</g>
	</g>
</svg>
